<?xml version="1.0" encoding="iso-8859-1"?>
<!-- Generator: Adobe Illustrator 19.0.0, SVG Export Plug-In . SVG Version: 6.00 Build 0)  -->
<svg version="1.1" id="Layer_1" xmlns="http://www.w3.org/2000/svg" xmlns:xlink="http://www.w3.org/1999/xlink" x="0px" y="0px"
	 viewBox="0 0 511.853 511.853" style="enable-background:new 0 0 511.853 511.853;" xml:space="preserve">
<g transform="translate(0 -1)">
	<g>
		<path style="fill:#CC6F56;" d="M251.563,228.722L251.563,228.722c-7.777-5.879-9.331-16.949-3.452-24.735l15.96-21.124
			c5.879-7.786,16.949-9.331,24.735-3.46c7.777,5.879,9.322,16.949,3.443,24.735l-15.951,21.133
			C270.418,233.047,259.348,234.592,251.563,228.722"/>
		<path style="fill:#CC6F56;" d="M309.976,264.058L309.976,264.058c-7.786-5.879-9.331-16.949-3.46-24.735l15.969-21.133
			c5.87-7.777,16.949-9.322,24.726-3.452c7.786,5.879,9.322,16.949,3.443,24.735l-15.951,21.124
			C328.832,268.383,317.754,269.928,309.976,264.058"/>
		<path style="fill:#CC6F56;" d="M473.424,287.937c-26.377,0.777-55.852-15.086-55.852-15.086l-70.753-28.301l-12.12,16.049
			c-5.87,7.786-16.949,9.331-24.726,3.46c-7.777-5.879-9.322-16.949-3.452-24.735l7.698-10.187
			c-9.534-5.314-18.591-11.396-27.392-17.823l-10.531,13.948c-5.879,7.786-16.949,9.331-24.735,3.46
			c-7.777-5.879-9.322-16.949-3.443-24.735l11.529-15.263c-6.497-6.215-12.774-12.685-18.644-19.562
			c-21.972-25.75-48.614-51.756-64.662-48.949c-31.038,5.429-61.564,35.31-149.998,35.31v88.276c0,0-52.657,44.659-9.075,105.931
			h46.557h359.689c5.553,0,10.867-2.207,14.795-6.126c2.066-2.066,4.502-3.663,7.23-4.723c14.521-5.588,67.513-18.097,66.242-28.796
			C510.288,297.55,499.801,287.16,473.424,287.937"/>
	</g>
	<path style="fill:#DEDEE1;" d="M511.778,310.084v0.009c1.571,10.611-51.712,23.208-66.242,28.796
		c-2.719,1.05-5.164,2.648-7.221,4.714c-0.989,0.98-2.057,1.854-3.196,2.613c-3.407,2.277-7.442,3.513-11.608,3.513H63.822H17.265
		c-11.82,15.545-9.507,26.58-4.211,33.73c5.085,6.886,13.586,10.408,22.148,10.408h349.122c39.38,0,78.265-8.828,113.788-25.838
		l4.361-2.092C513.314,360.789,511.778,310.084,511.778,310.084"/>
	<path style="fill:#663329;" d="M154.847,174.817c-20.78,25.759-43.926,63.497-60.91,92.999c-14.68,25.468-25,53.133-30.729,81.911
		h0.609h88.011c6.321-5.041,11.502-11.361,14.513-19.615c3.787-10.425,32.238-47.784,64.097-83.438L154.847,174.817z"/>
	<g>
		<path style="fill:#804537;" d="M188.7,296.765c8.227-10.681,18.123-22.846,28.804-35.31H97.635
			c-1.245,2.127-2.525,4.299-3.699,6.365c-5.394,9.34-9.975,19.068-14.186,28.946H188.7z"/>
		<path style="fill:#804537;" d="M176.269,120.231c-1.96,0.344-3.919,0.794-5.897,1.315c-0.989,0.265-2.004,0.6-3.001,0.909
			c-0.989,0.3-1.969,0.574-2.975,0.909c-1.713,0.583-3.452,1.218-5.217,1.889c-0.238,0.097-0.468,0.177-0.715,0.274
			c-11.07,4.273-23.411,10.143-39.08,15.563l160.627,152.708c25.318,19.412,61.608,14.486,80.834-10.982l18.944-25.079
			l-32.971-13.188l-4.679,6.206l-2.419,3.213c0,0-1.43,1.889-2.675,3.54l-1.112,1.474c-0.335,0.433-0.538,0.697-0.6,0.794
			l-0.212,0.274c-0.159,0.212-0.424,0.547-0.424,0.547c-0.68,0.918-1.448,1.739-2.277,2.472c-0.742,0.662-1.536,1.227-2.534,1.871
			c-6.012,3.716-13.93,3.637-19.915-0.883c-2.498-1.889-4.281-4.343-5.544-7.23c-0.415-0.998-0.742-2.004-0.98-3.063
			c-0.715-3.231-0.503-6.621,0.671-9.887c0.591-1.589,1.333-3.134,2.41-4.555l7.689-10.187c-7.159-3.981-13.974-8.483-20.683-13.153
			c-2.233-1.562-4.511-3.063-6.709-4.67c0,0-10.531,13.948-10.602,14.027c-0.671,0.883-1.412,1.686-2.216,2.401
			c-0.768,0.689-1.589,1.271-2.551,1.88c-6.003,3.716-13.912,3.619-19.897-0.9c-2.375-1.801-4.105-4.122-5.411-6.947
			c-0.424-0.945-0.759-1.907-1.006-2.94c-1.227-4.988-0.353-10.434,2.975-14.848c0,0,2.419-3.204,2.436-3.222
			c3.028-4.017,6.056-8.024,9.084-12.041c0.079-0.097-10.319-10.328-11.238-11.308c-3.549-3.778-6.894-7.715-10.311-11.608
			c-6.868-7.848-13.895-15.581-21.469-22.766c-4.529-4.299-9.26-8.404-14.221-12.191C195.461,125.563,185.6,118.589,176.269,120.231
			"/>
	</g>
</g>
<g>
</g>
<g>
</g>
<g>
</g>
<g>
</g>
<g>
</g>
<g>
</g>
<g>
</g>
<g>
</g>
<g>
</g>
<g>
</g>
<g>
</g>
<g>
</g>
<g>
</g>
<g>
</g>
<g>
</g>
</svg>
