<?xml version="1.0" encoding="iso-8859-1"?>
<!-- Generator: Adobe Illustrator 19.0.0, SVG Export Plug-In . SVG Version: 6.00 Build 0)  -->
<svg version="1.1" id="Layer_1" xmlns="http://www.w3.org/2000/svg" xmlns:xlink="http://www.w3.org/1999/xlink" x="0px" y="0px"
	 viewBox="0 0 512.002 512.002" style="enable-background:new 0 0 512.002 512.002;" xml:space="preserve">
<g transform="translate(0 -1)">
	<g>
		<path style="fill:#DEDEE1;" d="M251.531,228.813L251.531,228.813c-7.777-5.879-9.322-16.949-3.452-24.726l15.96-21.133
			c5.879-7.786,16.949-9.331,24.726-3.452c7.786,5.87,9.331,16.949,3.452,24.726l-15.96,21.133
			C270.386,233.139,259.317,234.692,251.531,228.813"/>
		<path style="fill:#DEDEE1;" d="M309.94,264.15L309.94,264.15c-7.777-5.879-9.322-16.949-3.452-24.735l15.96-21.124
			c5.879-7.786,16.949-9.331,24.726-3.46c7.786,5.879,9.331,16.949,3.452,24.735l-15.96,21.133
			C328.796,268.475,317.726,270.02,309.94,264.15"/>
		<path style="fill:#DEDEE1;" d="M511.928,310.15L511.928,310.15c1.562,10.62-51.721,23.208-66.242,28.804
			c-2.728,1.05-5.164,2.648-7.23,4.714c-0.98,0.98-2.048,1.854-3.187,2.613c-3.416,2.278-7.45,3.513-11.617,3.513H63.963H17.415
			c-11.829,15.545-9.507,26.58-4.22,33.73c5.094,6.886,13.586,10.408,22.157,10.408h349.122c39.38,0,78.265-8.828,113.779-25.838
			l4.361-2.092C513.464,360.855,511.928,310.15,511.928,310.15"/>
	</g>
	<path style="fill:#C03A2B;" d="M473.57,288.003c-26.377,0.777-55.852-15.086-55.852-15.086l-70.744-28.301l-12.12,16.049
		c-5.879,7.786-16.949,9.331-24.735,3.46c-7.777-5.879-9.322-16.949-3.452-24.735l7.698-10.187
		c-9.543-5.314-18.591-11.396-27.392-17.823l-10.531,13.948c-5.879,7.786-16.949,9.331-24.726,3.46
		c-7.786-5.879-9.331-16.949-3.452-24.735l11.529-15.263c-6.497-6.215-12.782-12.685-18.644-19.562
		c-21.972-25.75-48.605-51.756-64.662-48.949c-31.029,5.429-61.431,35.31-149.875,35.31v88.073c0,0-52.78,44.862-9.19,106.134H63.97
		h359.689c5.553,0,10.876-2.207,14.795-6.126c2.066-2.066,4.502-3.663,7.23-4.723c14.521-5.588,67.522-18.097,66.242-28.796
		C510.434,297.616,499.947,287.226,473.57,288.003"/>
	<g>
		<path style="fill:#9B2118;" d="M179.436,120.107c-1.086-0.035-2.127,0.026-3.134,0.194c-16.269,2.86-32.521,12.42-56.964,20.877
			l160.636,152.717c25.326,19.412,61.617,14.477,80.843-10.982l18.935-25.079l-32.962-13.197l-7.106,9.428l-4.449,5.879
			l-0.565,0.759c-5.35,7.08-15.501,9.004-23.084,4.423c-3.125-1.898-5.703-4.723-7.15-8.086c-1.774-4.087-1.836-8.845-0.353-13.038
			c1.121-3.16,3.266-5.711,5.261-8.351c1.607-2.136,3.231-4.281,4.838-6.418c-4.767-2.657-9.41-5.508-13.965-8.501
			c-4.555-2.975-9.013-6.109-13.418-9.322l-10.54,13.956c-5.385,7.133-15.545,8.986-23.155,4.361
			c-2.984-1.818-5.464-4.484-6.921-7.662c-1.836-4.008-2.013-8.695-0.68-12.871c1.015-3.187,3.046-5.72,5.023-8.342
			c3.028-4.008,6.056-8.024,9.092-12.041c-6.506-6.215-12.782-12.676-18.644-19.553C220.369,145.115,195.67,120.742,179.436,120.107
			"/>
		<path style="fill:#9B2118;" d="M182.125,298.254c6.515-10.434,2.869-24.196-7.954-30.023l-6.188-3.328
			c-43.167-23.243-91.992-33.015-140.932-30.261c-0.203,0.009-0.415,0.018-0.618,0.035v9.004c0,0-52.657,44.774-9.331,105.931
			H150.02L182.125,298.254z"/>
	</g>
	<polygon style="fill:#C03A2B;" points="35.264,314.302 123.539,314.302 123.539,278.992 35.264,278.992 	"/>
</g>
<g>
</g>
<g>
</g>
<g>
</g>
<g>
</g>
<g>
</g>
<g>
</g>
<g>
</g>
<g>
</g>
<g>
</g>
<g>
</g>
<g>
</g>
<g>
</g>
<g>
</g>
<g>
</g>
<g>
</g>
</svg>
