<?xml version="1.0" encoding="iso-8859-1"?>
<!-- Generator: Adobe Illustrator 19.0.0, SVG Export Plug-In . SVG Version: 6.00 Build 0)  -->
<svg version="1.1" id="Layer_1" xmlns="http://www.w3.org/2000/svg" xmlns:xlink="http://www.w3.org/1999/xlink" x="0px" y="0px"
	 viewBox="0 0 512.202 512.202" style="enable-background:new 0 0 512.202 512.202;" xml:space="preserve">
<g transform="translate(-1)">
	<g>
		<path style="fill:#58555D;" d="M36.513,180.965c-4.873,0-8.828-3.946-8.828-8.828c0-9.852-8.015-17.858-17.858-17.858
			c-4.882,0-8.828-3.955-8.828-8.828c0-4.882,3.946-8.828,8.828-8.828c19.58,0,35.513,15.925,35.513,35.513
			C45.341,177.019,41.386,180.965,36.513,180.965z"/>
		<path style="fill:#58555D;" d="M252.725,227.887L252.725,227.887c-7.777-5.879-9.331-16.949-3.452-24.726l15.96-21.133
			c5.879-7.786,16.949-9.331,24.726-3.452c7.786,5.87,9.331,16.949,3.452,24.726l-15.96,21.133
			C271.581,232.212,260.502,233.766,252.725,227.887"/>
		<path style="fill:#58555D;" d="M311.134,263.224L311.134,263.224c-7.777-5.879-9.331-16.949-3.452-24.735l15.96-21.124
			c5.879-7.786,16.949-9.331,24.726-3.46c7.786,5.879,9.331,16.949,3.452,24.735l-15.96,21.133
			C329.99,267.549,318.911,269.094,311.134,263.224"/>
	</g>
	<path style="fill:#DEDEE1;" d="M513.151,309.249L513.151,309.249c1.563,10.62-51.933,23.217-66.454,28.813
		c-2.728,1.042-5.164,2.639-7.23,4.705c-0.98,0.98-2.048,1.854-3.187,2.613c-3.416,2.277-7.45,3.513-11.608,3.513H64.974H18.435
		c-11.838,15.545-9.516,26.58-4.228,33.73c5.094,6.885,13.594,10.408,22.157,10.408h349.122c39.38,0,78.265-8.828,113.788-25.838
		l4.361-2.083C514.475,359.955,513.151,309.249,513.151,309.249"/>
	<path style="fill:#77757E;" d="M474.582,287.103c-26.368,0.777-55.852-15.086-55.852-15.086l-70.744-28.301l-11.555,15.298
		c-5.297,7.018-15.007,9.905-22.784,5.809c-9.913-5.235-12.429-17.77-5.967-26.333l7.698-10.178
		c-9.534-5.323-18.582-11.396-27.383-17.832l-9.975,13.197c-5.297,7.018-14.998,9.913-22.784,5.809
		c-9.913-5.235-12.42-17.77-5.959-26.333l11.529-15.263c-6.497-6.215-12.774-12.685-18.644-19.553
		c-21.972-25.759-48.605-51.765-64.662-48.958c-3.734,0.653-7.459,1.677-11.273,2.94c-6.824,17.09-26.289,33.589-52.206,42.019
		c-26.553,8.633-52.586,6.435-68.017-3.999c-5.111-3.46-10.893-5.694-17.064-5.65h-1.271v88.073c0,0-52.824,44.862-9.234,106.134
		h46.548h359.689c5.35,0,10.717-1.827,14.398-5.711c2.145-2.26,4.732-4.017,7.627-5.129c14.521-5.588,67.734-18.105,66.454-28.804
		C511.649,296.716,500.959,286.326,474.582,287.103"/>
	<g>
		<path style="fill:#58555D;" d="M33.091,348.896h31.885h53.213c8.333-5.42,15.095-12.782,18.767-22.863
			c5.809-15.996,59.215-101.385,105.578-157.299c-0.124-0.141-0.256-0.256-0.371-0.397c-21.972-25.759-48.614-51.765-64.671-48.958
			c-3.725,0.653-7.45,1.677-11.264,2.94c-6.824,17.09-26.289,33.589-52.206,42.019c-5.473,1.774-10.893,2.993-16.234,3.866
			c-24.991,60.849-57.935,140.173-57.935,140.173L33.091,348.896z"/>
		<path style="fill:#58555D;" d="M375.931,254.896c-22.502,28.425-40.519,56.514-40.519,56.514l-6.25,37.482h88.594
			c6.426-5.067,11.714-11.449,14.76-19.827c2.931-8.051,18.247-24.514,37.897-41.993c-25.229-0.839-51.686-15.06-51.686-15.06
			L375.931,254.896z"/>
		<path style="fill:#58555D;" d="M266.031,286.896c0,14.627-11.855,26.483-26.483,26.483c-14.627,0-26.483-11.855-26.483-26.483
			s11.855-26.483,26.483-26.483C254.175,260.413,266.031,272.268,266.031,286.896"/>
	</g>
	<g>
		<path style="fill:#77757E;" d="M151.272,233.93h-35.31c-4.873,0-8.828-3.946-8.828-8.828s3.955-8.828,8.828-8.828h35.31
			c4.873,0,8.828,3.946,8.828,8.828S156.145,233.93,151.272,233.93"/>
		<path style="fill:#77757E;" d="M168.927,198.62h-35.31c-4.873,0-8.828-3.946-8.828-8.828c0-4.882,3.955-8.828,8.828-8.828h35.31
			c4.873,0,8.828,3.946,8.828,8.828C177.755,194.674,173.8,198.62,168.927,198.62"/>
		<path style="fill:#77757E;" d="M133.617,269.241h-35.31c-4.873,0-8.828-3.946-8.828-8.828s3.955-8.828,8.828-8.828h35.31
			c4.873,0,8.828,3.946,8.828,8.828S138.49,269.241,133.617,269.241"/>
		<path style="fill:#77757E;" d="M115.962,304.551h-35.31c-4.873,0-8.828-3.946-8.828-8.828c0-4.882,3.955-8.828,8.828-8.828h35.31
			c4.873,0,8.828,3.946,8.828,8.828C124.789,300.605,120.834,304.551,115.962,304.551"/>
	</g>
</g>
<g>
</g>
<g>
</g>
<g>
</g>
<g>
</g>
<g>
</g>
<g>
</g>
<g>
</g>
<g>
</g>
<g>
</g>
<g>
</g>
<g>
</g>
<g>
</g>
<g>
</g>
<g>
</g>
<g>
</g>
</svg>
