<?xml version="1.0" encoding="iso-8859-1"?>
<!-- Generator: Adobe Illustrator 19.0.0, SVG Export Plug-In . SVG Version: 6.00 Build 0)  -->
<svg version="1.1" id="Layer_1" xmlns="http://www.w3.org/2000/svg" xmlns:xlink="http://www.w3.org/1999/xlink" x="0px" y="0px"
	 viewBox="0 0 512 512" style="enable-background:new 0 0 512 512;" xml:space="preserve">
<g>
	<path style="fill:#569E67;" d="M404.212,258.369c-11.308-2.428-32.538-14.548-56.717-30.27l-18.291,18.291
		c-6.894,6.894-18.07,6.894-24.964,0c-6.894-6.903-6.894-18.07,0-24.973l13.427-13.418c-9.066-6.303-18.15-12.756-26.977-19.129
		l-14.451,14.451c-6.894,6.894-18.07,6.894-24.964,0c-6.894-6.894-6.894-18.07,0-24.964l10.593-10.602
		c-15.828-11.767-29.149-21.919-37.367-28.239c-5.129-3.937-12.359-3.452-16.931,1.121l-18.132,18.132
		c-5.402,5.402-5.402,14.159,0,19.571l4.935,4.926c6.082,6.091,4.326,16.587-3.584,19.986
		c-87.164,37.429-127.912-34.701-127.912-34.701C33.683,163.305,8.983,331.011,8.983,331.011h503.014
		C511.996,265.14,442.391,266.614,404.212,258.369"/>
	<path style="fill:#DEDEE1;" d="M512,331.007H8.986L0,357.181c0,0,6.735,17.964,71.857,17.964h387.178
		C459.034,375.145,512.141,371.834,512,331.007"/>
	<g>
		<path style="fill:#397949;" d="M251.272,203.318L251.272,203.318c-6.894-6.886-6.894-18.07,0-24.964l18.732-18.723
			c6.886-6.894,18.07-6.894,24.964,0c6.894,6.894,6.894,18.07,0,24.964l-18.723,18.723
			C269.342,210.212,258.166,210.212,251.272,203.318"/>
		<path style="fill:#397949;" d="M304.237,246.387L304.237,246.387c-6.894-6.894-6.894-18.07,0-24.964l18.732-18.723
			c6.886-6.894,18.07-6.894,24.964,0c6.894,6.886,6.894,18.07,0,24.964l-18.723,18.723
			C322.308,253.281,311.132,253.281,304.237,246.387"/>
		<path style="fill:#397949;" d="M246.577,296.179c-17.505-4.723-38.612-8.819-61.202-13.497h-4.634
			c0,7.186-5.835,13.012-13.021,13.012h-52.965c-9.746,0-17.655-7.901-17.655-17.655v-18.317
			c-24.073-8.474-47.007-19.279-66.481-33.836C17.581,272.672,8.983,331.004,8.983,331.004H286.92
			C279.381,314.329,265.054,301.167,246.577,296.179"/>
	</g>
	<path style="fill:#2B5E36;" d="M167.724,295.697h-52.966c-9.746,0-17.655-7.91-17.655-17.655v-17.655
		c0-9.746,7.91-17.655,17.655-17.655h52.966c9.746,0,17.655,7.91,17.655,17.655v17.655
		C185.379,287.787,177.47,295.697,167.724,295.697"/>
	<path style="fill:#569E67;" d="M150.069,278.041h-17.655c-4.873,0-8.828-3.946-8.828-8.828c0-4.882,3.955-8.828,8.828-8.828h17.655
		c4.873,0,8.828,3.946,8.828,8.828C158.897,274.095,154.942,278.041,150.069,278.041"/>
</g>
<g>
</g>
<g>
</g>
<g>
</g>
<g>
</g>
<g>
</g>
<g>
</g>
<g>
</g>
<g>
</g>
<g>
</g>
<g>
</g>
<g>
</g>
<g>
</g>
<g>
</g>
<g>
</g>
<g>
</g>
</svg>
