<?xml version="1.0" encoding="iso-8859-1"?>
<!-- Generator: Adobe Illustrator 19.0.0, SVG Export Plug-In . SVG Version: 6.00 Build 0)  -->
<svg version="1.1" id="Layer_1" xmlns="http://www.w3.org/2000/svg" xmlns:xlink="http://www.w3.org/1999/xlink" x="0px" y="0px"
	 viewBox="0 0 512 512" style="enable-background:new 0 0 512 512;" xml:space="preserve">
<g>
	<path style="fill:#802D40;" d="M18.113,332.298c0,0-46.292-73.993,9.137-165.994c0,0,20.003-28.001,27.436,18.291
		c0,0,19.43,55.993,118.846-27.427c0,0,29.722-21.142,45.718-9.145c16.004,11.997,156.186,98.86,164.749,100.573
		c4.617,0.918,28.116,11.449,48.825,20.983c16.163,7.424,32.812,13.63,49.434,19.959c14.566,5.535,29.74,18.732,29.74,42.761H18.113
		z"/>
	<g>
		<path style="fill:#5B1A2B;" d="M70.621,235.195h70.621c9.746,0,17.655-7.91,17.655-17.655v-48.693
			c-86.678,66.057-104.218,15.748-104.218,15.748c-0.503-3.196-1.095-5.95-1.713-8.466v41.41
			C52.966,227.285,60.875,235.195,70.621,235.195"/>
		<path style="fill:#5B1A2B;" d="M123.586,341.126c-2.26,0-4.52-0.865-6.241-2.586c-3.452-3.452-3.452-9.031,0-12.482
			l114.759-114.759c3.452-3.452,9.031-3.452,12.482,0c3.452,3.452,3.452,9.031,0,12.482L129.827,338.539
			C128.106,340.261,125.846,341.126,123.586,341.126"/>
		<path style="fill:#5B1A2B;" d="M167.724,341.126c-2.26,0-4.52-0.865-6.241-2.586c-3.452-3.452-3.452-9.031,0-12.482l97.103-97.103
			c3.452-3.452,9.031-3.452,12.482,0c3.452,3.452,3.452,9.031,0,12.482l-97.103,97.103
			C172.244,340.261,169.984,341.126,167.724,341.126"/>
		<path style="fill:#5B1A2B;" d="M211.862,341.126c-2.26,0-4.52-0.865-6.241-2.586c-3.452-3.452-3.452-9.031,0-12.482l79.448-79.448
			c3.452-3.452,9.031-3.452,12.482,0c3.452,3.452,3.452,9.031,0,12.482l-79.448,79.448
			C216.382,340.261,214.122,341.126,211.862,341.126"/>
		<path style="fill:#5B1A2B;" d="M160.449,167.66l180.639,113.426c21.751,13.656,50.467,7.089,64.124-14.663l4.581-7.3
			c-12.482-5.553-22.89-9.949-25.794-10.531c-8.563-1.704-148.745-88.567-164.749-100.573c-15.996-11.997-45.718,9.154-45.718,9.154
			C168.994,160.978,164.668,164.412,160.449,167.66"/>
	</g>
	<g>
		<path style="fill:#802D40;" d="M256,208.712c-2.26,0-4.52-0.865-6.241-2.586c-3.452-3.452-3.452-9.031,0-12.482l26.483-26.483
			c3.452-3.452,9.031-3.452,12.482,0s3.452,9.031,0,12.482l-26.483,26.483C260.52,207.847,258.26,208.712,256,208.712"/>
		<path style="fill:#802D40;" d="M291.31,226.367c-2.26,0-4.52-0.865-6.241-2.586c-3.452-3.452-3.452-9.031,0-12.482l24.135-24.135
			c3.452-3.452,9.039-3.452,12.482,0c3.452,3.443,3.452,9.031,0,12.482l-24.135,24.135
			C295.83,225.502,293.57,226.367,291.31,226.367"/>
		<path style="fill:#802D40;" d="M326.621,252.85c-2.26,0-4.52-0.865-6.241-2.586c-3.452-3.452-3.452-9.031,0-12.482l26.209-26.209
			c3.443-3.443,9.031-3.443,12.482,0c3.443,3.452,3.443,9.039,0,12.482l-26.209,26.209
			C331.141,251.985,328.881,252.85,326.621,252.85"/>
	</g>
	<path style="fill:#DEDEE1;" d="M8.828,341.126v17.646c0,4.882,3.946,8.828,8.828,8.828l448.459,0.009c0,0,45.683,3.01,45.886-35.31
		H17.655C12.774,332.298,8.828,336.244,8.828,341.126"/>
</g>
<g>
</g>
<g>
</g>
<g>
</g>
<g>
</g>
<g>
</g>
<g>
</g>
<g>
</g>
<g>
</g>
<g>
</g>
<g>
</g>
<g>
</g>
<g>
</g>
<g>
</g>
<g>
</g>
<g>
</g>
</svg>
